<?xml version="1.0" encoding="utf-8"?>
<!-- Generator: Adobe Illustrator 16.0.0, SVG Export Plug-In . SVG Version: 6.00 Build 0)  -->
<!DOCTYPE svg PUBLIC "-//W3C//DTD SVG 1.1//EN" "http://www.w3.org/Graphics/SVG/1.1/DTD/svg11.dtd">
<svg version="1.1" id="Layer_1" xmlns="http://www.w3.org/2000/svg" xmlns:xlink="http://www.w3.org/1999/xlink" x="0px" y="0px"
	 width="100px" height="100px" viewBox="0 0 100 100" enable-background="new 0 0 100 100" xml:space="preserve">
<g>
	<path fill="#fff" d="M42.816,59.479v7.303c0.688,0,1.375,0,2.06,0v-5.698C44.163,60.587,43.475,60.048,42.816,59.479z"/>
	<path fill="#fff" d="M38.765,55.009c-0.35-0.491-0.685-0.993-0.996-1.503v13.275c0.688,0,1.372,0,2.057,0V56.399
		C39.458,55.947,39.105,55.484,38.765,55.009z"/>
	<polygon fill="#fff" points="11.813,68.336 11.813,21.621 7.866,21.621 7.866,68.336 7.866,71.791 11.813,71.791 70.794,71.791
		68.363,68.336 	"/>
	<path fill="#fff" d="M32.717,66.781c0.69,0,1.375,0,2.06,0V48.214l-2.06,1.572V66.781z"/>
	<path fill="#fff" d="M24.557,44.441l3.105,4.454l0.742,1.066l1.03-0.79l5.1-3.905c-0.188-0.928-0.324-1.872-0.405-2.816
		l-5.167,3.958l-3.042-4.36l-0.677-0.978l-1.003,0.637l-9.87,6.252l1.32,2.098L24.557,44.441z"/>
	<path fill="#fff" d="M52.921,64.836v1.945c0.685,0,1.37,0,2.055,0v-1.484C54.28,65.168,53.596,65.02,52.921,64.836z"/>
	<path fill="#fff" d="M47.872,62.892v3.89c0.685,0,1.37,0,2.054,0v-2.946C49.225,63.551,48.541,63.236,47.872,62.892z"/>
	<path fill="#fff" d="M66.638,51.611c1.234-0.779,2.337-1.746,3.262-2.873v-4.288l-3.262,1.422V51.611z"/>
	<path fill="#fff" d="M55.512,34.043l-1.263-1.756l-1.631,1.426l-6.778,5.929c-0.002,0.153-0.008,0.311-0.008,0.468
		c0,1.459,0.23,2.867,0.659,4.186l7.094-6.202l4.088,5.685l0.925,1.286l1.454-0.632l12.88-5.603
		c-0.131-1.359-0.457-2.661-0.954-3.874l-12.041,5.239L55.512,34.043z"/>
	<path fill="#fff" d="M91.573,74.638l-10.602-14.88c-0.973-1.361-2.878-1.686-4.239-0.711l-0.115,0.081l-1.709-2.396
		c3.732-3.469,6.066-7.996,6.868-12.78c0.96-5.694-0.259-11.758-3.876-16.833c-3.614-5.075-8.952-8.202-14.645-9.16
		c-5.698-0.957-11.76,0.259-16.833,3.874c-5.081,3.62-8.207,8.955-9.164,14.65s0.259,11.756,3.876,16.833
		c3.618,5.075,8.95,8.207,14.645,9.161c4.689,0.786,9.624,0.102,14.052-2.178l1.73,2.426l-0.262,0.188
		c-1.359,0.97-1.678,2.883-0.711,4.244l10.602,14.878c0.972,1.361,2.88,1.683,4.239,0.711l5.432-3.866
		C92.221,77.907,92.543,75.997,91.573,74.638z M74.589,42.75c-0.648,3.854-2.766,7.464-6.2,9.914
		c-3.439,2.446-7.543,3.27-11.4,2.624c-3.854-0.646-7.465-2.768-9.914-6.205c-2.449-3.435-3.275-7.538-2.627-11.396
		c0.648-3.856,2.766-7.463,6.205-9.917c3.435-2.446,7.538-3.27,11.401-2.624c3.853,0.648,7.465,2.768,9.908,6.203
		C74.416,34.788,75.237,38.89,74.589,42.75z"/>
	<path fill="#fff" d="M58.624,53.665c0.262,0.016,0.523,0.026,0.79,0.026c0.841,0,1.67-0.078,2.472-0.225v-5.532l-3.262,1.423
		V53.665z"/>
	<path fill="#fff" d="M57.971,65.657v1.124c0.685,0,1.37,0,2.055,0v-1.082C59.341,65.715,58.655,65.699,57.971,65.657z"/>
	<path fill="#fff" d="M63.021,65.464v1.317c0.685,0,1.37,0,2.055,0v-1.688C64.396,65.244,63.711,65.369,63.021,65.464z"/>
	<path fill="#fff" d="M50.61,45.934v4.516c0.978,0.834,2.075,1.532,3.263,2.063v-7.258l-0.963-1.333L50.61,45.934z"/>
</g>
</svg>
